<svg xmlns="http://www.w3.org/2000/svg" width="24" height="24" viewBox="0 0 24 24" fill="none">
<g id="6_American Football">
<path id="Shape" fill-rule="evenodd" clip-rule="evenodd" d="M21.0824 1.02068C22.0159 1.25524 22.7448 1.98412 22.9794 2.91761C23.251 4.44247 23.3185 5.99668 23.1803 7.53936C21.2448 5.02258 18.9946 2.7643 16.4848 0.819738C18.0194 0.681449 19.5657 0.74903 21.0824 1.02068ZM1.02002 21.059C0.734626 19.4677 0.675096 17.8442 0.843184 16.2363C1.79708 17.5427 2.85049 18.7735 3.99401 19.9176C5.17394 21.0854 6.44233 22.1603 7.78786 23.1327C6.16399 23.3031 4.52419 23.2436 2.91694 22.9559C1.98346 22.7213 1.25458 21.9925 1.02002 21.059ZM14.2663 1.15733C7.83486 2.58855 2.77593 7.55085 1.22096 13.9535C3.51267 17.4905 6.52564 20.5034 10.0626 22.7952C16.446 21.2381 21.3933 16.1943 22.8266 9.78191C21.6363 8.10673 20.3081 6.53389 18.8559 5.07979C17.4346 3.65044 15.8997 2.33866 14.2663 1.15733ZM15.0782 11.6467L16.2115 10.5134L14.7567 9.05851L16.2115 7.59562L15.0782 6.46229L13.6153 7.91713L12.1604 6.46229L11.0271 7.59562L12.482 9.05851L11.3727 10.1597L9.91789 8.70484L8.78456 9.83817L10.2394 11.3011L9.13018 12.4022L7.67534 10.9474L6.542 12.0807L7.99685 13.5436L6.542 14.9985L7.67534 16.1318L9.13018 14.6769L10.585 16.1318L11.7264 14.9985L10.2716 13.5436L11.3727 12.4344L12.8276 13.8892L13.969 12.7559L12.5141 11.3011L13.6153 10.1918L15.0782 11.6467Z" fill="#fff"/>
</g>
</svg>