<svg xmlns="http://www.w3.org/2000/svg" width="24" height="24" viewBox="0 0 24 24" fill="none">
<g id="11638_Australian Football">
<path id="Shape" fill-rule="evenodd" clip-rule="evenodd" d="M21.0756 1.03233C22.0067 1.26629 22.7337 1.99331 22.9677 2.92441C23.9878 8.49121 22.2077 14.2039 18.2058 18.2058C14.2039 22.2077 8.49121 23.9878 2.92441 22.9677C1.99331 22.7337 1.26629 22.0067 1.03233 21.0756C0.012183 15.5088 1.79234 9.79609 5.79421 5.79421C9.79609 1.79234 15.5088 0.012183 21.0756 1.03233ZM15.0867 11.7114L16.2171 10.5729L14.758 9.10575L16.2091 7.65462L15.0786 6.52418L13.6195 7.97531L12.1603 6.5322L11.0299 7.66264L12.481 9.11377L11.3746 10.2202L9.92352 8.76903L8.79308 9.89947L10.2442 11.3506L9.13782 12.457L7.68669 11.0059L6.55625 12.1363L8.00738 13.5874L6.57228 15.0546L7.70272 16.185L9.15386 14.7339L10.613 16.185L11.7434 15.0546L10.2923 13.5954L11.3907 12.4971L12.8418 13.9482L13.9803 12.8178L12.5291 11.3586L13.6275 10.2602L15.0867 11.7114Z" fill="#ddd"/>
</g>
</svg>