<svg xmlns="http://www.w3.org/2000/svg" width="24" height="24" viewBox="0 0 24 24" fill="none">
<path fill-rule="evenodd" clip-rule="evenodd" d="M12.9704 5.02068L11.1667 0L6.62416 9.73532L8.92437 12.0265L12.9704 5.02068ZM0.906804 18.2548C-0.338694 19.6055 -0.29611 21.6981 1.00331 22.997C2.30273 24.296 4.396 24.3386 5.74719 23.0935L8.16325 20.6783L3.32286 15.8396L0.906804 18.2548ZM9.69398 19.4953L4.4978 14.3009L5.87131 11.3646L12.6313 18.1222L9.69398 19.4953ZM10.7117 13.8629L17.8523 9.72724L17.5875 6.41872L14.2364 6.13749L10.0994 13.2674L10.7117 13.8629ZM11.9529 15.0706L18.9859 11.0177L24.0001 12.8457L14.2614 17.3866L11.9529 15.0706Z" fill="#fff"/>
</svg>