<svg xmlns="http://www.w3.org/2000/svg" width="24" height="24" viewBox="0 0 24 24" fill="none">
<path fill-rule="evenodd" clip-rule="evenodd" d="M23.1617 0.833147C22.689 0.328578 22.0373 0.029587 21.3466 0.000407282C20.9551 -0.00855852 20.5746 0.130786 20.2815 0.39052L13.5312 7.14246L8.87344 12.484L11.5136 15.1248L16.8913 10.4359L23.5817 3.74398C24.2717 3.06129 24.0917 1.77092 23.1617 0.833147ZM9.00105 4.11892C9.00105 2.66875 7.82573 1.49316 6.37591 1.49316C4.92609 1.49316 3.75078 2.66875 3.75078 4.11892C3.75078 4.81531 4.02736 5.48318 4.51967 5.97561C5.01197 6.46803 5.67969 6.74467 6.37591 6.74467C7.82573 6.74467 9.00105 5.56908 9.00105 4.11892ZM2.70072 19.8659L7.86097 13.6616L10.3361 16.1298L4.12579 21.2988C4.21293 21.497 4.27103 21.7067 4.29829 21.9215C4.37495 22.4913 4.18391 23.0646 3.78077 23.4744C3.43076 23.8175 2.95823 24.0066 2.4682 23.9996C1.12389 23.9492 0.0468402 22.8686 0.00058041 21.5239C-0.0119108 21.0327 0.177678 20.5578 0.525038 20.2104C0.872398 19.863 1.34709 19.6733 1.83817 19.6858C2.13457 19.6899 2.42741 19.7511 2.70072 19.8659Z" fill="#fff"/>
</svg>