<svg xmlns="http://www.w3.org/2000/svg" width="24" height="24" viewBox="0 0 24 24" fill="none">
<path fill-rule="evenodd" clip-rule="evenodd" d="M13.6732 11.1548H10.2397C9.92738 8.84624 8.67242 6.7689 6.77179 5.41437L3.92346 3.06328C5.99914 1.20468 8.65737 0.121985 11.4444 0C12.7402 3.58688 13.4914 7.34663 13.6732 11.1548ZM21.2547 4.29059C19.4434 6.15066 18.3258 8.5733 18.088 11.1551H15.4548C15.2712 7.37299 14.5557 3.63536 13.3293 0.0517578C16.4227 0.385507 19.2647 1.90555 21.2547 4.29059ZM23.9996 12.8711C23.8715 14.7851 23.281 16.6397 22.2785 18.2769C20.9011 16.7799 20.0311 14.8886 19.7916 12.8711H23.9996ZM23.9995 11.1548C23.8714 9.24085 23.2809 7.38619 22.2785 5.74902C20.9058 7.24731 20.0417 9.13883 19.8087 11.1548H23.9995ZM6.78936 18.6119C8.67567 17.2482 9.91958 15.1738 10.2315 12.8714L13.7166 12.8457C13.5339 16.6538 12.7827 20.4134 11.4878 24.0005C8.63799 23.8787 5.9253 22.7468 3.83776 20.8085L6.78936 18.6119ZM15.3942 12.8714C15.2165 16.6436 14.5098 20.3724 13.2945 23.949C16.386 23.6092 19.2259 22.0903 21.2199 19.7102C19.4098 17.8493 18.2924 15.4271 18.0532 12.8457L15.3942 12.8714ZM5.72212 6.7787L2.74471 4.32465C1.12546 6.26622 0.164489 8.66928 -0.000366211 11.1891H8.49301C8.18789 9.41468 7.19588 7.83077 5.73072 6.7787H5.72212ZM-0.000366211 12.871H8.49301H8.50161C8.18384 14.6312 7.18968 16.1982 5.73072 17.2385L2.63284 19.5553C1.0921 17.647 0.173299 15.3147 -0.000366211 12.871Z" fill="#fff"/>
</svg>