<svg xmlns="http://www.w3.org/2000/svg" width="24" height="24" viewBox="0 0 24 24" fill="none">
<g id="11625_Beach Football">
<path id="Shape" fill-rule="evenodd" clip-rule="evenodd" d="M22.7976 18.4528C21.3252 17.2567 19.5495 16.4929 17.6685 16.2466C20.7825 12.8517 20.5594 7.57644 17.1698 4.45664C13.7802 1.33684 8.50454 1.55097 5.37896 4.93521C2.25337 8.31944 2.45849 13.5955 5.83738 16.7268C4.41449 17.3056 3.08482 18.0912 1.89135 19.0583C1.78258 19.1368 1.67381 19.216 1.5647 19.2953L1.56468 19.2954C1.29682 19.4903 1.02692 19.6866 0.75 19.8795L1.54338 21.0208C1.85078 20.8088 2.14607 20.5928 2.43847 20.3789L2.43855 20.3788C2.53008 20.3119 2.62133 20.2451 2.71257 20.1787L2.72731 20.168C4.62795 18.7806 6.2689 17.5829 8.97611 17.5829C11.0013 17.5829 12.4002 18.6407 13.7503 19.6707L13.7874 19.6987C14.9079 20.5444 15.9635 21.341 17.23 21.341V19.9491C16.3949 19.9491 15.5459 19.3088 14.5576 18.5572L13.8617 18.0143C14.6883 17.73 15.5556 17.5819 16.4297 17.5759C19.1124 17.5759 20.4968 18.5444 21.9683 19.5739L21.9973 19.5941L22.4497 19.9212L23.25 18.7729L22.7976 18.4528ZM9.94347 8.53554L8.94827 11.5977L11.5581 13.4976L14.1679 11.5977L13.1727 8.53554H9.94347ZM15.0448 12.6834L16.6872 13.2193L16.8055 15.0774C17.3825 14.3931 17.822 13.6038 18.1 12.753C18.3744 11.9048 18.4808 11.0112 18.4132 10.1223L16.9865 11.8204L15.5389 11.3472L14.4323 7.93005L15.5041 6.45464L17.3692 6.91397C16.9004 6.15568 16.2881 5.49614 15.5667 4.97227C14.8466 4.44387 14.0278 4.06523 13.1588 3.85876L14.321 5.71694L13.3119 7.10883H9.76949L8.69077 5.6195L9.79036 3.86572C8.92134 4.07219 8.10254 4.45083 7.38238 4.97923C6.65885 5.50281 6.04425 6.16233 5.57292 6.92093L7.56333 6.43376L8.64901 7.92309L7.54941 11.2915L5.94873 11.8134L4.55683 10.1292C4.4186 11.9262 4.99649 13.7049 6.16447 15.0774L6.30366 13.1705L8.02266 12.6138L10.8691 14.7016V16.2814L10.6116 16.3858C11.2337 16.5446 11.8343 16.7783 12.4002 17.0818C12.6716 16.9635 12.9569 16.8521 13.2423 16.7547L12.261 16.351V14.7086L15.0448 12.6834Z" fill="#fff"/>
</g>
</svg>