<svg xmlns="http://www.w3.org/2000/svg" width="25" height="24" viewBox="0 0 25 24" fill="none">
<path fill-rule="evenodd" clip-rule="evenodd" d="M6.94975 9.65644C7.18776 9.7982 7.43588 9.92226 7.6921 10.0276C7.82945 8.73505 8.23663 7.48571 8.88727 6.36043C9.95102 4.62172 11.499 3.23115 13.3413 2.35919C13.0259 2.32181 12.7087 2.30199 12.3911 2.2998C8.97901 2.30274 5.86836 4.25447 4.38124 7.32548C5.05469 8.28268 5.93188 9.07875 6.94975 9.65644ZM10.2016 7.10322C9.61654 8.1179 9.27121 9.25291 9.192 10.4215C10.0707 10.5481 10.9663 10.4874 11.8199 10.2433C12.3777 8.31842 13.6567 6.68301 15.3906 5.67791C16.3127 5.15597 17.3168 4.7945 18.36 4.60894C17.6691 3.98417 16.8852 3.47075 16.0364 3.08713C13.611 3.5403 11.491 4.99951 10.2016 7.10322ZM17.8996 10.4283C17.2452 9.29635 16.3569 8.31695 15.294 7.55542C15.5578 7.3383 15.8383 7.14221 16.1328 6.96897C17.1856 6.31459 18.4137 5.99851 19.6516 6.06331C22.0692 9.45151 21.8036 14.0655 19.0131 17.1539C19.3188 14.8512 18.9311 12.5096 17.8996 10.4283ZM10.0307 14.2368C11.1294 14.2371 12.2153 14.0016 13.2153 13.5465C12.8773 12.8879 12.4249 12.2947 11.8791 11.7945C9.95301 12.26 7.92159 11.9649 6.20759 10.9705C5.30892 10.4335 4.48942 9.77387 3.77271 9.01074C3.59896 9.69295 3.50431 10.3929 3.49061 11.0967C4.6561 12.6928 7.82591 14.1775 10.0307 14.1775V14.2368ZM24.4239 19.5834L24.4322 19.5893L24.8999 19.8937L24.0462 21.1185L23.5637 20.7696L23.5327 20.748C21.9632 19.6499 20.4864 18.6168 17.6249 18.6168C16.6925 18.6233 15.7674 18.7812 14.8857 19.0845L15.628 19.6635C16.6821 20.4653 17.5878 21.1482 18.4786 21.1482V22.6329C17.1276 22.6329 16.0017 21.7832 14.8064 20.8811L14.7669 20.8513C13.3268 19.7526 11.8346 18.6243 9.67442 18.6243C6.78673 18.6243 5.03637 19.9019 3.00903 21.3817L2.99331 21.3932C2.89598 21.464 2.79865 21.5352 2.70102 21.6066C2.3891 21.8348 2.0741 22.0653 1.74618 22.2914L0.899902 21.074C1.1953 20.8683 1.4832 20.6588 1.76893 20.4509C1.88531 20.3662 2.00133 20.2818 2.11735 20.198C3.39038 19.1665 4.80869 18.3285 6.32644 17.7112C5.07209 16.5454 4.18033 15.0428 3.75793 13.3833C5.57097 14.7566 7.75243 15.5578 10.0233 15.6846C11.2987 15.6976 12.5628 15.4448 13.735 14.9422C13.8521 15.4285 13.9119 15.9268 13.9132 16.4269C13.9069 16.9608 13.8346 17.4919 13.6979 18.0081C14.2271 17.7934 14.7703 17.6148 15.3237 17.4736C15.3709 17.1267 15.3957 16.7771 15.3979 16.4269C15.3964 14.3981 14.5964 12.4514 13.1709 11.0078C13.3698 10.1733 13.736 9.38792 14.2473 8.69911C15.2161 9.35195 16.0255 10.2146 16.6153 11.2231C17.5018 13.0683 17.8147 15.137 17.5136 17.1618H17.6472C20.9894 17.1618 22.815 18.449 24.4239 19.5834Z" fill="#fff"/>
</svg>