<svg xmlns="http://www.w3.org/2000/svg" width="15" height="14" viewBox="0 0 15 14" fill="none">
    <path fill-rule="evenodd" clip-rule="evenodd" d="M9.33279 0.000488281C10.8218 0.0397248 12.2377 0.609075 13.2884 1.59101V1.60509C14.3357 2.57987 14.9469 3.88757 14.9988 5.26471L14.1209 6.07639C12.559 7.53007 10.0257 7.53112 8.46246 6.07874C6.89925 4.62636 6.89812 2.27054 8.45994 0.816865L9.33279 0.000488281ZM11.3159 8.08453C9.21701 8.0891 7.34035 6.86938 6.62371 5.03485L5.33714 6.23126L4.62574 5.56971L6.35126 3.96511C6.24981 3.1404 6.3838 2.30538 6.73975 1.54413C6.01952 0.972493 4.94787 1.01129 4.27761 1.63328L4.04552 1.8491C3.50686 2.40588 3.19142 3.11852 3.15249 3.86658V7.31507L8.01623 11.838L12.1282 8.01415C11.8584 8.05894 11.585 8.08249 11.3109 8.08453H11.3159ZM1.35111 9.30911C1.12558 9.5178 0.998779 9.80147 0.998779 10.0973C0.998779 10.3932 1.12558 10.6769 1.35111 10.8856L4.34807 13.6725C4.57334 13.8825 4.87922 14.0005 5.19821 14.0005C5.5172 14.0005 5.82308 13.8825 6.04836 13.6725L7.3097 12.4995L2.61246 8.13615L1.35111 9.30911Z" fill="#fff"/>
</svg>