<svg xmlns="http://www.w3.org/2000/svg" width="24" height="24" viewBox="0 0 24 24" fill="none">
<g id="11634 or 6596_Cricket">
<path id="Shape" fill-rule="evenodd" clip-rule="evenodd" d="M5.82993 13.4728L10.2039 17.8391L22.9267 5.12395C22.3368 2.99971 20.677 1.33989 18.5528 0.75L5.82993 13.4728ZM6.12152 4.418C6.12152 5.9013 4.91907 7.10376 3.43576 7.10376C1.95246 7.10376 0.75 5.9013 0.75 4.418C0.75 2.93469 1.95246 1.73224 3.43576 1.73224C4.91907 1.73224 6.12152 2.93469 6.12152 4.418ZM6.96562 19.0746C7.41569 18.6023 8.07356 18.3888 8.7152 18.5067L5.36951 15.1917C5.56097 15.8485 5.38519 16.5575 4.9091 17.0487L1.11066 20.8472C0.889928 21.0649 0.765667 21.362 0.765667 21.6721C0.765667 21.9821 0.889928 22.2793 1.11066 22.497L1.51736 22.9114C1.97463 23.3629 2.70992 23.3629 3.16719 22.9114L6.96562 19.0746Z" fill=""/>
</g>
</svg>