<svg xmlns="http://www.w3.org/2000/svg" width="24" height="24" viewBox="0 0 24 24" fill="none">
<g id="1433_Curling">
<path id="Shape" fill-rule="evenodd" clip-rule="evenodd" d="M17.25 9.705H7.59L8.025 8.085C8.27964 7.32653 8.95414 6.78694 9.75 6.705H16.5C16.7936 6.71513 17.0788 6.60608 17.2907 6.40266C17.5026 6.19923 17.6232 5.91874 17.625 5.625C17.625 5.00368 17.1213 4.5 16.5 4.5H9.75C7.9339 4.55381 6.35502 5.76137 5.8275 7.5L5.175 9.9375C4.06119 10.2862 3.09531 10.9961 2.43 11.955H21.5175C20.5442 10.5571 18.9533 9.71831 17.25 9.705ZM21.75 13.455H2.25C1.42157 13.455 0.75 14.1266 0.75 14.955C0.75 15.7834 1.42157 16.455 2.25 16.455H21.75C22.5784 16.455 23.25 15.7834 23.25 14.955C23.25 14.1266 22.5784 13.455 21.75 13.455ZM17.25 20.205H6.75C5.03876 20.199 3.43784 19.3594 2.46 17.955H21.54C20.5622 19.3594 18.9612 20.199 17.25 20.205Z" fill="#fff"/>
</g>
</svg>