<svg xmlns="http://www.w3.org/2000/svg" width="24" height="24" viewBox="0 0 24 24" fill="none">
<g id="1891_Cycling">
<path id="Shape" fill-rule="evenodd" clip-rule="evenodd" d="M18.681 10.1179H18.4492L17.4801 6.60671H19.7554V4.5H14.7133L15.6824 8.01118H11.5392L10.9774 5.90447H6.41288V8.01118H9.35525L10.8721 13.6993H9.81873C9.3294 11.4239 7.21315 9.876 4.89646 10.0989C2.57977 10.3218 0.797469 12.2448 0.750931 14.5717C0.704392 16.8986 2.40838 18.8914 4.71431 19.2067C7.02023 19.5221 9.19668 18.06 9.77659 15.806H11.5392C12.0374 15.8168 12.511 15.5897 12.8147 15.1946C13.1183 14.7994 13.2158 14.2833 13.0771 13.8046L12.094 10.1179H16.2442L16.4127 10.7288C14.4314 11.8732 13.6056 14.3093 14.4828 16.4226C15.36 18.5359 17.6681 19.6712 19.8774 19.0761C22.0868 18.481 23.5124 16.34 23.2095 14.072C22.9066 11.8041 20.969 10.1123 18.681 10.1179ZM5.35952 17.1402C4.13217 17.1395 3.09351 16.2334 2.92619 15.0175C2.75886 13.8016 3.51417 12.6486 4.6957 12.3164C5.87722 11.9841 7.12276 12.5744 7.6137 13.6993H5.71064V15.806H7.53646C7.11566 16.6212 6.27693 17.1353 5.35952 17.1402ZM16.2442 14.6825C16.2442 16.0399 17.3446 17.1403 18.702 17.1403V17.1754C20.0594 17.2685 21.2353 16.2435 21.3284 14.8861C21.4215 13.5287 20.3965 12.3528 19.0391 12.2597L19.5939 14.2611L17.5644 14.8229L17.0307 12.8918C16.5293 13.3521 16.2439 14.0017 16.2442 14.6825Z" fill="#fff"/>
</g>
</svg>