<svg xmlns="http://www.w3.org/2000/svg" width="24" height="24" viewBox="0 0 24 24" fill="none">
<g id="11632_Darts">
<path id="Shape" fill-rule="evenodd" clip-rule="evenodd" d="M22.4142 7.70786L20.0437 10.1186C20.1992 10.7332 20.2775 11.3649 20.2767 11.9989C20.2767 16.4369 16.679 20.0346 12.241 20.0346C7.80303 20.0346 4.20533 16.4369 4.20533 11.9989C4.20533 7.56093 7.80303 3.96323 12.241 3.96323C12.7428 3.962 13.2434 4.01045 13.7357 4.10787L16.2508 1.58467C11.6705 -0.284597 6.40655 1.05765 3.28058 4.89193C0.154596 8.72622 -0.0997541 14.1526 2.65386 18.2625C5.40748 22.3724 10.5228 24.2011 15.2579 22.7685C19.993 21.3359 23.2365 16.9781 23.2499 12.0311C23.2561 10.5493 22.9722 9.08059 22.4142 7.70786ZM11.9678 7.94088C12.1537 7.94727 12.3389 7.96606 12.5223 7.99713L13.8562 6.66321C13.2499 6.44737 12.6114 6.33597 11.9678 6.33374C8.86122 6.33374 6.34283 8.85213 6.34283 11.9587C6.34283 15.0653 8.86122 17.5837 11.9678 17.5837C15.0744 17.5837 17.5928 15.0653 17.5928 11.9587C17.5906 11.3152 17.4792 10.6766 17.2633 10.0703L15.9294 11.4043C15.9605 11.5876 15.9793 11.7729 15.9856 11.9587C15.9856 14.1777 14.1868 15.9766 11.9678 15.9766C9.74881 15.9766 7.94996 14.1777 7.94996 11.9587C7.94996 9.73973 9.74881 7.94088 11.9678 7.94088ZM12.3776 10.4079L15.9856 6.79983V4.05163L19.1999 0.837355L23.0892 4.72663L19.8749 7.9409H17.1187L13.5187 11.5489C13.5543 11.6827 13.5732 11.8203 13.5749 11.9587C13.5749 12.8463 12.8554 13.5659 11.9678 13.5659C11.0802 13.5659 10.3607 12.8463 10.3607 11.9587C10.3607 11.0711 11.0802 10.3516 11.9678 10.3516C12.1062 10.3534 12.2439 10.3723 12.3776 10.4079Z" fill="#fff"/>
</g>
</svg>