<svg xmlns="http://www.w3.org/2000/svg" width="24" height="24" viewBox="0 0 24 24" fill="none">
<g id="29086_Cyber Sport">
<path id="Shape" fill-rule="evenodd" clip-rule="evenodd" d="M19.3579 3.2377C21.6675 3.93982 23.2472 6.06854 23.25 8.48248V17.5146V17.6271C23.2401 19.0681 22.2241 20.3061 20.8127 20.5969C19.4013 20.8877 17.9787 20.1522 17.4 18.8325L14.7723 14.2441H9.21161L6.64821 18.6878C6.13277 20.0665 4.70512 20.8793 3.25648 20.6188C1.80784 20.3582 0.75281 19.099 0.75 17.6271V17.5146V8.48248C0.752785 6.06854 2.33248 3.93982 4.64205 3.2377C6.95163 2.53559 9.44882 3.42495 10.7946 5.42891H13.2054C14.5512 3.42495 17.0484 2.53559 19.3579 3.2377ZM7.17857 9.42269H8.78571C9.22951 9.42269 9.58928 9.06292 9.58928 8.61912C9.58928 8.17532 9.22951 7.81555 8.78571 7.81555H7.17857V6.2084C7.17857 5.7646 6.8188 5.40483 6.375 5.40483C5.9312 5.40483 5.57143 5.7646 5.57143 6.2084V7.81555H3.96428C3.52048 7.81555 3.16071 8.17532 3.16071 8.61912C3.16071 9.06292 3.52048 9.42269 3.96428 9.42269H5.57143V11.0298C5.57143 11.4736 5.9312 11.8334 6.375 11.8334C6.8188 11.8334 7.17857 11.4736 7.17857 11.0298V9.42269ZM16.0179 9.42267H14.4107V7.81553H16.0179V9.42267ZM16.8214 11.8334H18.4286V10.2262H16.8214V11.8334ZM18.4286 7.01197H16.8214V5.40483H18.4286V7.01197ZM19.2321 9.42267H20.8393V7.81553H19.2321V9.42267Z" fill="#fff"/>
</g>
</svg>