<svg xmlns="http://www.w3.org/2000/svg" width="24" height="24" viewBox="0 0 24 24" fill="none">
<g id="1439_Field Hockey">
<path id="Shape" fill-rule="evenodd" clip-rule="evenodd" d="M19.4129 0.75L21.544 1.90687L14.8768 19.0468C13.4992 21.8552 12.076 22.5935 10.4548 23.0273C8.78143 23.4759 6.99837 23.2411 5.49813 22.3746C3.99789 21.5082 2.90344 20.0811 2.4557 18.4074C2.24259 17.6083 1.67938 14.2442 4.21383 13.5669C5.6092 13.194 7.04294 14.0216 7.41805 15.4163C7.50236 15.7415 7.48713 16.0477 7.47291 16.3336C7.46018 16.5898 7.44824 16.8297 7.50938 17.0527C7.59497 17.3878 7.81187 17.6742 8.11116 17.8475C8.41044 18.0208 8.76688 18.0662 9.10007 17.9736C9.41358 17.9092 9.68015 17.7044 9.82311 17.418L19.4129 0.75ZM6.39818 8.82526C7.86938 8.82526 9.06202 7.63262 9.06202 6.16142C9.06202 4.69022 7.86938 3.49758 6.39818 3.49758C4.92698 3.49758 3.73434 4.69022 3.73434 6.16142C3.73434 7.63262 4.92698 8.82526 6.39818 8.82526Z" fill="#fff"/>
</g>
</svg>