<svg xmlns="http://www.w3.org/2000/svg" width="24" height="24" viewBox="0 0 24 24" fill="none">
<path fill-rule="evenodd" clip-rule="evenodd" d="M-0.00012207 12C-0.00012207 5.37258 5.37246 0 11.9999 0C18.6273 0 23.9999 5.37258 23.9999 12C23.9999 18.6274 18.6273 24 11.9999 24C5.37246 24 -0.00012207 18.6274 -0.00012207 12ZM6.8227 19.6883C7.28723 19.6978 7.73576 19.5184 8.06555 19.1911C8.80807 18.2853 8.68184 16.9503 7.7827 16.1997C7.33374 15.7288 6.71858 15.452 6.06841 15.4283C5.56373 15.4221 5.08201 15.6387 4.75165 16.0203C4.42129 16.4019 4.27586 16.9096 4.35412 17.4083C4.4288 17.9816 4.69453 18.5131 5.10841 18.9168C5.55895 19.3855 6.17316 19.6618 6.8227 19.6883ZM7.79149 7.77435C7.34253 8.24523 6.72737 8.52205 6.0772 8.54578C5.57252 8.55189 5.0908 8.33529 4.76044 7.95372C4.43008 7.57215 4.28465 7.06439 4.36291 6.56578C4.54171 5.30687 5.58734 4.35108 6.8572 4.28578C7.32174 4.27622 7.77026 4.45563 8.10006 4.78292C8.83647 5.69551 8.69868 7.0313 7.79149 7.77435ZM9.42859 11.9996C9.42859 13.4197 10.5799 14.571 12 14.571C13.4202 14.571 14.5714 13.4197 14.5714 11.9996C14.5714 10.5794 13.4202 9.42813 12 9.42813C10.5799 9.42813 9.42859 10.5794 9.42859 11.9996ZM19.7141 17.4083C19.6395 17.9816 19.3737 18.5131 18.9599 18.9168C18.5093 19.3855 17.8951 19.6618 17.2456 19.6883C16.781 19.6978 16.3325 19.5184 16.0027 19.1911C15.2582 18.2875 15.3805 16.9528 16.277 16.1997C16.726 15.7288 17.3411 15.452 17.9913 15.4283C18.496 15.4221 18.9777 15.6387 19.3081 16.0203C19.6384 16.4019 19.7838 16.9096 19.7056 17.4083H19.7141ZM17.9827 8.54542C18.4502 8.55733 18.9023 8.37774 19.2342 8.04827H19.1999C19.5759 7.65306 19.7414 7.10247 19.6456 6.56542C19.4662 5.30348 18.4159 4.34673 17.1427 4.28542C16.7109 4.30046 16.3007 4.47802 15.9942 4.78256C15.2496 5.68614 15.372 7.02088 16.2685 7.77399C16.7174 8.24486 17.3326 8.52169 17.9827 8.54542Z" fill="#fff"/>
</svg>