<svg xmlns="http://www.w3.org/2000/svg" width="24" height="24" viewBox="0 0 24 24" fill="none">
<path fill-rule="evenodd" clip-rule="evenodd" d="M15.043 0.40232C13.0501 -0.134107 10.9499 -0.134107 8.95701 0.40232L12 2.19184L15.043 0.40232ZM21.3523 8.90441L22.1259 5.47949C23.2373 7.20169 23.8828 9.18081 23.9999 11.2248L21.3523 8.90441ZM1.88252 5.47972C0.760651 7.20701 0.111681 9.19646 0 11.2507L2.64757 8.9132L1.88252 5.47972ZM7.35821 10.7285L9.12899 16.1655H14.8711L16.6419 10.7285L12.0001 7.37207L7.35821 10.7285ZM18.4385 10.7631L16.513 16.6711L17.6047 18.1695L22.5646 17.69C23.2811 16.3804 23.7447 14.9486 23.9314 13.4688L20.2007 10.1895L18.4385 10.7631ZM5.56133 10.7627L7.48683 16.6707L6.40374 18.1691L1.44384 17.6981C0.721961 16.3871 0.255319 14.952 0.0684814 13.4684L3.79915 10.189L5.56133 10.7627ZM21.3094 19.5732C19.9997 21.1657 18.3005 22.3953 16.3753 23.1437L17.7764 19.9157L21.3094 19.5732ZM8.73343 18.0059L7.78787 19.2388L9.77355 23.7854C11.244 24.0708 12.7559 24.0708 14.2263 23.7854L16.212 19.2388L15.2664 18.0059H8.73343ZM17.5272 9.3246L12.8596 5.9425L12.8424 3.69918L17.1404 1.19043C18.4986 1.82598 19.7236 2.71211 20.7507 3.80193L19.6676 8.63106L17.5272 9.3246ZM2.69073 19.5986C4.00037 21.191 5.69964 22.4207 7.62484 23.1691L6.21509 19.9411L2.69073 19.5986ZM11.1402 5.94227L6.47261 9.32438L4.31501 8.63083L3.23192 3.8017C4.26066 2.71158 5.48519 1.82292 6.84224 1.18164L11.1402 3.69895V5.94227Z" fill="#fff"/>
</svg>