<svg xmlns="http://www.w3.org/2000/svg" width="24" height="24" viewBox="0 0 24 24" fill="none">
<path fill-rule="evenodd" clip-rule="evenodd" d="M14.4256 2.57111L16.8342 1.02821C13.7958 -0.321551 10.3322 -0.343296 7.27708 0.968212L9.47136 2.57111H14.4256ZM16.6287 6.60014L19.8344 8.61448L22.8258 6.90015C21.8923 4.90767 20.4309 3.20901 18.6001 1.9886L15.6001 3.57435L16.6287 6.60014ZM13.9628 4.28554L14.9142 6.77989L11.7599 8.59708L8.63135 6.79703L9.71991 4.28554H13.9628ZM14.8972 17.2289L13.9801 19.7146H9.70294L8.65723 17.2117L11.7601 15.4202L14.8972 17.2289ZM4.53418 13.9205V10.0289L7.55131 8.13461L10.8684 10.0461V13.9033L7.55131 15.8148L4.53418 13.9205ZM23.4855 8.57108L20.6655 10.1654V13.9284L23.4684 15.5827C23.8258 14.4221 24.005 13.2141 23.9998 11.9997C23.9976 10.8378 23.8243 9.68253 23.4855 8.57108ZM18.9514 10.0967V13.9882L15.9343 15.8825L12.6172 13.971V10.1138L15.9343 8.20232L18.9514 10.0967ZM15.54 20.4425L16.6457 17.4253L19.86 15.4452L22.8257 17.1596C21.6887 19.5654 19.7785 21.5209 17.4 22.714L15.54 20.4425ZM9.57431 21.4371L7.96289 23.2886C9.25698 23.7587 10.6232 23.9995 12 24C13.312 23.9956 14.6146 23.7785 15.8571 23.3571L14.2886 21.4371H9.57431ZM3.65138 15.4025L6.89137 17.434L8.15136 20.4598L6.30851 22.5684C3.96971 21.3072 2.11565 19.3054 1.03711 16.8769L3.65138 15.4025ZM6.89131 6.59163L8.10845 3.46298L5.53704 1.91151C3.56525 3.17665 2.0069 4.9913 1.0542 7.13164L3.66847 8.60596L6.89131 6.59163ZM0.471426 8.76796L2.87142 10.1223L2.85427 13.8767L0.454284 15.2395C0.15565 14.1853 0.00280183 13.0952 0 11.9995C0.0068724 10.9057 0.165528 9.81813 0.471426 8.76796Z" fill="#fff"/>
</svg>