<svg xmlns="http://www.w3.org/2000/svg" width="23" height="24" viewBox="0 0 23 24" fill="none">
<path d="M20.384 13.2533L17.236 10.1013C16.992 10.4347 16.6187 10.6667 16.1747 10.6667C15.4374 10.6667 14.8427 10.0667 14.8427 9.33203C14.8427 8.88803 15.0747 8.51464 15.408 8.27197L12.1253 4.98535V0L6.82935 5.29598L17.5854 16.0493L20.384 13.2533ZM21.3254 14.1973L17.5854 17.9347L12.8813 13.232L9.46802 16.9814L17.1493 19.044C17.1493 19.044 17.8321 19.7267 18.6747 20.5693C19.5161 21.4107 20.7947 21.4987 21.528 20.764L22.8427 19.4347V15.716L21.3254 14.1973ZM11.936 12.2867L5.88672 6.23869L0 12.1266L5.48665 24L8.06803 16.5374L11.936 12.2867Z" fill="#fff"/>
</svg>