<?xml version="1.0" encoding="utf-8"?>
<!-- Generator: Adobe Illustrator 22.0.1, SVG Export Plug-In . SVG Version: 6.00 Build 0)  -->
<svg version="1.1" id="Logo" xmlns="http://www.w3.org/2000/svg" xmlns:xlink="http://www.w3.org/1999/xlink" x="0px" y="0px"
	 viewBox="0 0 15 15" style="enable-background:new 0 0 15 15;" xml:space="preserve">
<style type="text/css">
	.st0{fill:#FFFFFF;}
	.st1{fill:#FA012D;}
	.st2{fill:#092668;}
</style>
<g>
	<path id="path2475" class="st0" d="M-8.082,0C-9.05,0-9.829,0.779-9.829,1.747v11.506C-9.829,14.221-9.05,15-8.082,15h20.33
		l4.212-1.708L15.252,0.008L-8.082,0z"/>
	<path id="rect2470" class="st1" d="M15.036,0c0.968,0,1.747,0.779,1.747,1.747v11.506c0,0.968-0.779,1.747-1.747,1.747h-3.19
		l0.046-1.283c1.79,0.09,2.975-0.134,3.633-0.858c0.004-0.309,0.242-0.831-0.233-1.709c-0.26-0.481-0.574-1.07-1.629-1.789
		c-0.055-0.799-0.486-1.182-0.795-1.56c-0.346-0.422-0.588-0.799-0.944-0.974L7.749,0.008L15.036,0z"/>
	<path id="path2473" class="st2" d="M-10.32,0c-0.968,0-1.747,0.779-1.747,1.747v11.506c0,0.968,0.779,1.747,1.747,1.747h10.291
		c-0.114-0.393-0.433-1.239-0.716-1.241c-0.227-0.019-1.088,0.088-1.237-0.076C-1.33,8.89-0.493,9.244,0.354,8.62
		c0.154-0.114-0.106-0.255-0.003-0.399c0.127-0.179-0.139-0.356-0.043-0.529C0.456,7.427-0.713,7.731-0.62,7.468
		c0.181-0.516,0.393-0.852,0.521-1.295C0.008,5.805-0.11,5.974-0.11,5.808c0.001-0.248-1.872,0.135-1.815-0.101
		c0.105-0.433,1.635-0.865,1.614-1.294c-0.093-1.934,1.518-2.943,2.665-2.906C4.367,1.472,4.93,1.692,5.657,3.014
		c0.479,0.956,1.05,2.542,0.028,2.985c0.063,0.465,0.17,0.865,0.434,1.028c0.357-0.013,0.495,0.018,0.797,0.017
		c2.129-0.006,3.12,0.163,3.627,0.51l0.134-0.881l-5.09-6.666L-10.32,0z"/>
	<path id="path2529" class="st0" d="M-7.419,11.414c0,0.638-0.516,1.155-1.154,1.155c-0.638,0-1.155-0.516-1.155-1.154
		c0,0,0-0.001,0-0.001c0-0.638,0.516-1.155,1.154-1.155C-7.936,10.259-7.419,10.775-7.419,11.414
		C-7.419,11.413-7.419,11.414-7.419,11.414z"/>
</g>
</svg>
