<?xml version="1.0" encoding="utf-8"?>
<!-- Generator: Adobe Illustrator 22.0.1, SVG Export Plug-In . SVG Version: 6.00 Build 0)  -->
<svg version="1.1" id="Слой_1" xmlns="http://www.w3.org/2000/svg" xmlns:xlink="http://www.w3.org/1999/xlink" x="0px" y="0px"
	 viewBox="0 0 15 15" style="enable-background:new 0 0 15 15;" xml:space="preserve">
<style type="text/css">
	.st0{fill:#FFFFFF;}
	.st1{fill:#0E499D;}
	.st2{fill:#D30529;}
</style>
<rect class="st0" width="15" height="15"/>
<rect y="12" class="st1" width="3" height="3"/>
<path class="st1" d="M11.6,12.2c0-0.6,0-0.7-0.1-0.8c-0.1-0.1-0.1-0.3-0.1-0.5c0-0.4-0.1-0.5-0.5-1.4c-0.5-0.9-0.5-1-0.4-1.2
	c0.1-0.3,0.1-0.3,0-0.7c-0.2-0.4-0.2-0.5-0.7-0.8C8.9,6.2,8.2,5.6,7,4.4C5.7,3.1,4.6,1.7,3.6,0H0v12c0,1.6,1.3,3,3,3h8.9
	c0-0.1-0.1-0.2-0.2-0.3C11.5,14.4,11.5,14.5,11.6,12.2z"/>
<path class="st2" d="M10.8,2.3c0.4,0.7,0.6,1.2,0.9,2.9C11.8,6,12,6.7,12,6.7c0,0.1,0.2,0.3,0.3,0.5c0.4,0.6,0.4,0.8,0.3,1.4
	c-0.1,0.2-0.1,0.6-0.2,0.8c0,0.4,0.1,1.4,0.3,1.8c0.1,0.1,0.1,0.3,0.1,0.4c0,0.1,0.1,0.4,0.2,0.8c0.4,1.2,0.4,1.7-0.1,2.2
	c-0.1,0.1-0.1,0.2-0.1,0.2C14,14.6,15,13.4,15,12V0H9.93C10.026,0.88,10.169,1.308,10.8,2.3z"/>
<polygon class="st0" points="3,11.4 2.3,8.3 1.1,8.3 1.1,13.3 2.1,13.3 2.1,10.2 2.8,13.3 4,13.3 4,8.3 3,8.3 "/>
<path class="st0" d="M6.6,10.6C7,10.5,7.2,10,7.2,9.5c0-0.7-0.3-1.2-1.1-1.2H4.5v4.9h1.7c0.9,0,1.2-0.6,1.2-1.5
	C7.4,11.2,7.1,10.7,6.6,10.6z M5.6,9.3h0.3c0.2,0,0.3,0.2,0.3,0.5s-0.1,0.5-0.3,0.5H5.6V9.3z M5.9,12.3H5.6v-1.2h0.3
	c0.2,0,0.4,0.2,0.4,0.6C6.3,12.1,6.1,12.3,5.9,12.3z"/>
<path class="st0" d="M8.4,8.3l-1,5h1.2l0.1-0.9h0.9l0.1,0.9h1.1l-1-5H8.4z M8.8,11.4l0.3-2.1l0.3,2.1H8.8z"/>
<polygon class="st2" points="15,15 15,12 12.7,15 "/>
</svg>
