<svg xmlns="http://www.w3.org/2000/svg" width="24" height="24" viewBox="0 0 24 24" fill="none">
<g id="15396_Netball">
<path id="Shape" fill-rule="evenodd" clip-rule="evenodd" d="M17.3144 5.07861L17.9963 2.53539C14.309 0.154872 9.56921 0.154872 5.88191 2.53539L6.56384 5.07861C9.98858 3.56998 13.8897 3.56998 17.3144 5.07861ZM6.74837 6.78751C6.40955 7.47829 6.14078 8.20128 5.94609 8.94564C9.96746 8.63275 14.0071 8.63275 18.0284 8.94564C17.8337 8.20128 17.565 7.47829 17.2261 6.78751C13.9309 5.12689 10.0436 5.12689 6.74837 6.78751ZM5.58506 10.5823C9.82965 10.2253 14.0967 10.2253 18.3413 10.5823V10.8551C18.3856 11.2413 18.4097 11.6296 18.4135 12.0184C18.4094 12.4098 18.3853 12.8008 18.3413 13.1897V13.4384C14.0967 13.7954 9.82965 13.7954 5.58506 13.4384V13.2058C5.5368 12.8091 5.51268 12.4099 5.51286 12.0104C5.51292 11.6108 5.53703 11.2116 5.58506 10.815V10.5823ZM17.178 17.2171C17.5168 16.5263 17.7856 15.8033 17.9803 15.059C16.0388 15.2194 14.017 15.2997 11.9391 15.2997C9.86121 15.2997 7.83947 15.2194 5.89795 15.059C6.09264 15.8033 6.36141 16.5263 6.70023 17.2171C9.99543 18.8777 13.8828 18.8777 17.178 17.2171ZM19.3699 3.60206L19.3762 3.57838L19.3522 3.58641L19.3699 3.60206ZM19.3699 3.60206L18.6702 6.20986C19.3832 7.64097 19.8265 9.19116 19.978 10.7829V10.9192C19.978 11.0917 19.99 11.2662 20.002 11.4407C20.0141 11.6152 20.0261 11.7897 20.0261 11.9622V12.0103V12.0585C20.0261 12.4035 20.0261 12.7565 19.978 13.1014V13.2378C19.8282 14.8141 19.3932 16.35 18.6943 17.7707L19.4003 20.3942C21.7982 18.2556 23.1655 15.1925 23.1563 11.9795C23.1471 8.77433 21.7691 5.72619 19.3699 3.60206ZM4.22119 14.9146V14.8744C4.1038 14.3452 4.01807 13.8094 3.96446 13.2699V13.0854C3.96446 12.9129 3.95243 12.7424 3.94039 12.5719C3.92836 12.4014 3.91632 12.2309 3.91632 12.0584V11.9943C3.91632 11.6493 3.91632 11.3123 3.96446 10.9673V10.7908C4.0148 10.2509 4.10056 9.71493 4.22119 9.18628C4.44632 8.18839 4.79113 7.22133 5.24811 6.3061H5.20799L4.51001 3.69067C2.11107 5.82809 0.742364 8.89055 0.750032 12.1036C0.7577 15.3166 2.14101 18.3725 4.55013 20.4984L5.24811 17.875C4.79683 16.9545 4.45228 15.9855 4.22119 14.9868V14.9146ZM6.61198 18.934C8.29445 19.6908 10.1184 20.0818 11.9632 20.0813V20.0733C13.8257 20.0861 15.6694 19.7004 17.3706 18.942L18.0445 21.4692C14.3554 23.8437 9.61914 23.8437 5.93004 21.4692L6.61198 18.934Z" fill="#fff"/>
</g>
</svg>