<?xml version="1.0" encoding="utf-8"?>
<!-- Generator: Adobe Illustrator 22.0.1, SVG Export Plug-In . SVG Version: 6.00 Build 0)  -->
<svg version="1.1" id="Слой_1" xmlns="http://www.w3.org/2000/svg" xmlns:xlink="http://www.w3.org/1999/xlink" x="0px" y="0px"
	 viewBox="0 0 15 15" style="enable-background:new 0 0 15 15;" xml:space="preserve">
<style type="text/css">
	.st0{fill:#eee;}
</style>
<g>
	<rect width="15" height="15"/>
	<path class="st0" d="M4.413,10.266l-1.38-2.114L1.5,9.303c0,0,0.537,0.015,0.537,0.578v3.98l1.082-0.812v-2.815l1.233,1.888
		l1.143-0.858V6.303L4.413,7.115V10.266z"/>
	<path class="st0" d="M8.799,5.656l-1.22,0.916V4.738L5.931,5.976c0,0,0.537,0.015,0.537,0.577v3.981l1.111-0.834V7.885l1.22-0.916
		v1.814l1.058-0.794V3.027L8.799,3.822V5.656z"/>
	<path class="st0" d="M11.89,5.195V1.5l-1.648,1.237c0,0,0.537,0.015,0.537,0.578v3.98l3.068-2.304c-0.067-0.794,0-1.266,0-1.266
		L11.89,5.195z"/>
	<polygon class="st0" points="11.2,0 0,8.4 0,9.65 12.866,0 	"/>
	<polygon class="st0" points="15,5.35 2.133,15 3.8,15 15,6.6 	"/>
</g>
</svg>
