<svg version="1.1" fill="#fff" id="Capa_1" xmlns="http://www.w3.org/2000/svg" xmlns:xlink="http://www.w3.org/1999/xlink" x="0px" y="0px"
	 viewBox="0 0 508.101 508.101" style="enable-background:new 0 0 508.101 508.101;" xml:space="preserve">
<g>
	<g>
		<path d="M474.266,44.278c-0.734-0.437-1.48-0.852-2.239-1.244l-76.8-38.4c-21.01-10.67-46.692-2.287-57.362,18.723
			c-0.081,0.159-0.16,0.318-0.239,0.477l-57.6,113.067c-1.296,2.665-2.023,5.572-2.133,8.533v96
			c-0.265,7.879,3.837,15.263,10.667,19.2l-34.133,66.133l-34.133-66.133c6.83-3.937,10.932-11.321,10.667-19.2v-93.867
			c-0.111-2.962-0.837-5.868-2.133-8.533l-57.6-115.2C160.82,2.692,135.246-6.011,114.104,4.395
			c-0.16,0.078-0.319,0.158-0.477,0.239l-76.8,38.4C15.685,53.44,6.982,79.015,17.388,100.157c0.078,0.16,0.158,0.319,0.239,0.477
			l57.6,113.067l6.4,6.4l76.8,55.467c6.211,4.492,14.355,5.307,21.333,2.133l46.933,93.867l-55.467,117.333l38.4,19.2l44.8-87.467
			l44.8,87.467l38.4-19.2l-59.733-115.2l46.933-93.867c6.978,3.173,15.122,2.359,21.333-2.133l78.933-55.467l6.4-6.4l57.6-113.067
			C501.15,82.521,494.512,56.335,474.266,44.278z M188.293,200.901l-44.8-91.733l-38.4,19.2l46.933,89.6l-38.4-25.6l-57.6-110.933
			l76.8-38.4l55.467,108.8V200.901z M395.227,192.367l-38.4,27.733l46.933-91.733l-38.4-19.2l-44.8,91.733v-49.067l55.467-108.8
			l76.8,38.4L395.227,192.367z"/>
	</g>
</g>

</svg>