<svg xmlns="http://www.w3.org/2000/svg" width="24" height="24" viewBox="0 0 24 24" fill="none">
<g id="16_Rugby">
<path id="Shape" fill-rule="evenodd" clip-rule="evenodd" d="M6.02144 6.02203C10.1328 1.90263 15.266 0.0440654 18.8946 0.99346C16.0142 1.91067 12.0799 4.64622 8.36275 8.35529C5.86358 10.7838 3.7185 13.5518 1.99054 16.578C1.58963 17.3191 1.25574 18.0946 0.99287 18.8952C0.0434757 15.2827 1.91008 10.1414 6.02144 6.02203ZM21.7347 3.23827C21.7596 2.96659 21.6789 2.69578 21.5094 2.48197C21.2949 2.314 21.0247 2.23351 20.7532 2.25669C18.7578 2.25669 14.2522 4.75086 9.48915 9.49784C7.10033 11.8124 5.0475 14.4502 3.3905 17.3344C2.08709 19.7883 2.071 21.1159 2.46524 21.5101C2.67905 21.6795 2.94986 21.7602 3.22153 21.7354C5.21687 21.7354 9.72247 19.2412 14.4855 14.4942C19.2486 9.74725 21.7347 5.23361 21.7347 3.23827ZM22.9979 5.09673C22.0807 7.95296 19.3451 11.9114 15.628 15.6366C11.9109 19.3618 7.95242 22.0732 5.08814 23.0065C8.71676 23.9559 13.8499 22.0973 17.9613 17.9779C22.0726 13.8585 23.9473 8.72534 22.9979 5.09673Z" fill="#fff"/>
</g>
</svg>