<svg xmlns="http://www.w3.org/2000/svg" width="24" height="24" viewBox="0 0 24 24" fill="none">
<path fill-rule="evenodd" clip-rule="evenodd" d="M11.9999 0C5.37246 0 -0.00012207 5.37258 -0.00012207 12C-0.00012207 18.6274 5.37246 24 11.9999 24C18.6273 24 23.9999 18.6274 23.9999 12C23.9999 5.37258 18.6273 0 11.9999 0ZM14.9056 11.6571C15.4506 11.1785 15.763 10.4882 15.7627 9.76286C15.7627 8.04857 14.2542 6.9 12.0084 6.9C9.76272 6.9 8.25415 8.04857 8.25415 9.76286C8.25393 10.4882 8.56627 11.1785 9.1113 11.6571C8.26706 12.1384 7.74414 13.0339 7.73987 14.0057C7.73987 15.8571 9.45415 17.1 12.0256 17.1C14.597 17.1 16.3113 15.8571 16.3113 14.0057C16.3 13.0268 15.763 12.1296 14.9056 11.6571ZM11.9998 8.61458C12.3427 8.61458 14.0398 8.66601 14.0398 9.76315C14.0398 10.8603 12.3256 10.9117 11.9998 10.9117C11.6741 10.9117 9.95984 10.8603 9.95984 9.76315C9.95984 8.66601 11.657 8.61458 11.9998 8.61458ZM9.42859 14.006C9.42859 14.9575 10.7229 15.386 12 15.386V15.4289C13.2772 15.4289 14.5714 14.9575 14.5714 14.006C14.5714 13.0546 13.2857 12.626 12 12.626C10.7143 12.626 9.42859 13.0546 9.42859 14.006ZM5.14294 11.9999C5.14294 15.7869 8.21299 18.857 12.0001 18.857C15.7872 18.857 18.8572 15.7869 18.8572 11.9999C18.8572 8.21276 15.7872 5.14271 12.0001 5.14271C8.21299 5.14271 5.14294 8.21276 5.14294 11.9999Z" fill="#fff"/>
</svg>