<svg xmlns="http://www.w3.org/2000/svg" width="24" height="24" viewBox="0 0 24 24" fill="none">
<path fill-rule="evenodd" clip-rule="evenodd" d="M15.0162 7.92617C14.071 9.06421 13.4064 10.4084 13.0758 11.8504C16.1468 14.8553 17.1745 19.38 15.703 23.4169C17.3908 22.8737 18.9364 21.9615 20.2277 20.7464C21.5908 15.7859 19.4534 10.5282 15.0162 7.92617ZM8.80014 6.11438C7.78558 7.87036 7.25801 9.86534 7.27187 11.8934C8.63116 12.1199 10.0237 12.0436 11.3501 11.6701C12.2467 7.29974 15.6976 3.90607 20.0818 3.0832C18.87 1.99056 17.451 1.15251 15.9092 0.61876C12.9183 1.46266 10.3704 3.43228 8.80014 6.11438ZM14.1319 16.6586C13.6996 15.3771 12.9935 14.205 12.0627 13.2239C9.13241 14.1383 5.95312 13.7832 3.29664 12.245C2.14082 11.5528 1.10074 10.6835 0.21435 9.66891C-0.103279 11.3062 -0.0681553 12.9923 0.31738 14.615C3.99356 18.2265 9.59121 19.0268 14.1319 16.5899V16.6586ZM21.5071 4.63653C20.0962 4.73168 18.7253 5.14565 17.4975 5.84729C17.0743 6.10056 16.6723 6.38773 16.2955 6.70598C20.1712 9.20379 22.4525 13.552 22.3056 18.1609C24.8461 13.9157 24.5046 8.54299 21.447 4.65371L21.5071 4.63653ZM8.58553 19.7752C6.0863 19.777 3.63617 19.0811 1.51086 17.7659C3.61785 21.6024 7.64329 23.9904 12.0198 24C12.5628 23.9948 13.1048 23.9546 13.6425 23.8798C14.3048 22.5824 14.6491 21.1461 14.6471 19.6894C14.6434 19.2496 14.6089 18.8106 14.5441 18.3756C12.6902 19.2895 10.6523 19.7682 8.58553 19.7752ZM4.18105 10.7851C4.6299 11.0363 5.09784 11.2516 5.58053 11.4292C5.64947 9.25754 6.2541 7.13664 7.34061 5.25518C8.65244 3.02095 10.5653 1.20009 12.8613 0C12.5865 0 12.3204 0 12.0456 0C7.06551 0.00238274 2.60262 3.07593 0.824017 7.72821C1.7058 8.97133 2.84121 10.0132 4.15529 10.7851H4.18105Z" fill="#fff"/>
</svg>