<svg xmlns="http://www.w3.org/2000/svg" width="25" height="24" viewBox="0 0 25 24" fill="none">
<path fill-rule="evenodd" clip-rule="evenodd" d="M15.9339 2.52C13.3512 4.24497 10.9402 6.21401 8.73395 8.4C6.53869 10.6043 4.5615 13.0155 2.82995 15.6C2.49673 14.5662 2.32932 13.4862 2.33395 12.4C2.33395 6.65624 6.99019 2 12.7339 2C13.8214 2.00312 14.9015 2.17863 15.9339 2.52ZM21.59 17.8958L22.142 18.1838L22.11 18.1598C22.8998 18.6565 23.8172 18.9123 24.75 18.8958V20.4958C23.5625 20.5229 22.3918 20.2122 21.374 19.5998C19.7507 18.6607 17.7493 18.6607 16.126 19.5998C14.0339 20.7945 11.4661 20.7945 9.374 19.5998C7.75071 18.6607 5.74929 18.6607 4.126 19.5998C3.10821 20.2122 1.93747 20.5229 0.75 20.4958V18.8958C1.67421 18.9188 2.58538 18.6743 3.374 18.1918L3.37406 18.1918C3.55004 18.0958 3.72602 17.9998 3.918 17.9118C3.8938 17.8721 3.86959 17.8327 3.84547 17.7934C3.75796 17.651 3.67152 17.5104 3.59 17.3598C7.18851 11.6815 11.9997 6.87035 17.678 3.27184C19.4706 4.2404 20.9414 5.71124 21.91 7.50384C20.1034 10.3252 18.0037 12.9477 15.646 15.3278C14.4004 16.5644 13.0806 17.7239 11.694 18.7998C12.0422 18.8648 12.3958 18.8969 12.75 18.8958C13.307 18.9108 13.8623 18.8268 14.39 18.6478C15.23 17.9358 16.03 17.2558 16.79 16.4558C18.9802 14.2534 20.9496 11.8419 22.67 9.25584C23.6032 12.1541 23.2079 15.3165 21.59 17.8958Z" fill="#fff"/>
</svg>