<svg fill="#fff" viewBox="0 0 20 20" xmlns="http://www.w3.org/2000/svg"><g><path d="M17.7 14.6a.5.5 0 0 1-.6.2l-2.5-1.5.5 2.1a.5.5 0 0 1-.3.6.5.5 0 0 1-.1 0 .5.5 0 0 1-.5-.3l-.8-3.1-2.9-1.7v3.3l2.3 2.3a.5.5 0 0 1-.4.8.5.5 0 0 1-.3-.1l-1.6-1.6v2.9a.5.5 0 0 1-1 0v-2.9l-1.6 1.6a.5.5 0 0 1-.7-.7l2.3-2.3V11l-2.9 1.7-.8 3a.5.5 0 0 1-.5.5.5.5 0 0 1-.4-.7l.5-2-2.5 1.4a.5.5 0 0 1-.5-.9L5 12.4 2.8 12a.5.5 0 1 1 .2-1l3.1.8 3-1.7-3-1.7L3 9a.5.5 0 0 1-.1 0 .5.5 0 0 1-.1-1l2-.5L2.5 6a.5.5 0 0 1 .5-.9l2.5 1.5-.5-2.1a.5.5 0 0 1 1-.3l.7 3.1 2.9 1.7V5.8L7.2 3.5a.5.5 0 0 1 .7-.7l1.6 1.6V1.5a.5.5 0 0 1 1 0v2.9l1.6-1.6a.5.5 0 1 1 .7.7l-2.3 2.3V9l2.9-1.7.8-3a.5.5 0 0 1 1 .2l-.6 2 2.5-1.4a.5.5 0 0 1 .5.9L15 7.6l2.1.5a.5.5 0 0 1 0 1 .5.5 0 0 1-.2 0l-3.1-.8-3 1.7 3 1.7L17 11a.5.5 0 1 1 .2 1l-2 .5 2.4 1.5a.5.5 0 0 1 .1.7z"></path></g></svg>